<?xml version="1.0" standalone="no"?>
<!DOCTYPE svg PUBLIC "-//W3C//DTD SVG 20010904//EN"
 "http://www.w3.org/TR/2001/REC-SVG-20010904/DTD/svg10.dtd">
<svg version="1.0" xmlns="http://www.w3.org/2000/svg"
 width="260.000000pt" height="280.000000pt" viewBox="0 0 260.000000 280.000000"
 preserveAspectRatio="xMidYMid meet">

<g transform="translate(0.000000,280.000000) scale(0.100000,-0.100000)"
fill="#000000" stroke="none">
<path d="M1205 2336 c-18 -13 -17 -19 22 -183 l40 -171 -23 -178 c-13 -99 -24
-182 -24 -186 0 -5 -49 -8 -110 -8 -103 0 -110 -1 -110 -20 0 -11 5 -20 10
-20 6 0 10 -30 10 -70 0 -63 -3 -74 -25 -94 -14 -13 -47 -29 -73 -35 -72 -19
-77 -23 -80 -75 l-3 -46 98 0 c102 0 115 -4 126 -32 4 -11 17 -18 32 -18 18 0
25 -5 25 -20 0 -11 7 -20 15 -20 8 0 15 -6 15 -14 0 -8 5 -16 11 -18 6 -2 12
-88 16 -241 6 -234 6 -238 27 -235 21 3 21 8 24 241 2 201 5 237 17 237 8 0
15 6 15 14 0 8 7 16 15 20 8 3 14 11 13 18 -2 6 11 14 27 18 21 3 31 12 33 28
l3 22 385 0 c338 0 384 -2 384 -15 0 -9 7 -18 15 -21 8 -4 15 -12 15 -19 0 -7
5 -15 11 -17 7 -2 13 -90 16 -266 6 -260 6 -263 27 -260 21 3 21 8 24 261 2
217 5 259 17 263 8 4 15 12 15 19 0 7 7 15 15 19 8 3 15 12 15 20 0 11 14 16
53 18 l52 3 0 175 0 175 -579 3 -579 2 6 43 c3 23 11 90 18 150 7 59 15 107
19 107 3 0 16 -46 29 -102 32 -149 39 -167 65 -174 13 -3 178 -4 367 -2 330 3
346 4 401 26 121 49 212 168 211 281 0 131 -89 227 -243 261 -30 6 -152 15
-270 19 -242 9 -278 18 -387 91 -56 39 -60 40 -144 40 -56 0 -92 -5 -104 -14z"/>
<path d="M486 2030 c-67 -21 -110 -88 -104 -165 5 -61 33 -106 82 -129 142
-67 285 76 214 214 -36 71 -114 103 -192 80z"/>
<path d="M366 1710 c-42 -13 -95 -68 -106 -110 -5 -19 -12 -116 -16 -215 -7
-196 -4 -214 48 -262 38 -36 66 -41 257 -49 179 -7 182 -7 178 -28 -3 -12 -17
-90 -32 -173 -26 -144 -26 -154 -11 -178 22 -34 79 -35 100 -2 8 12 35 123 60
246 42 203 45 226 32 246 -12 18 -41 29 -146 54 -73 17 -138 31 -146 31 -8 0
-17 7 -21 15 -3 9 -19 23 -35 31 -43 23 -208 248 -208 285 0 41 39 79 82 79
42 -1 52 -9 117 -95 l53 -70 -4 51 c-5 58 -35 107 -77 128 -38 20 -91 27 -125
16z"/>
<path d="M356 1638 c-9 -12 -16 -30 -16 -40 0 -28 177 -257 208 -269 37 -15
321 42 340 68 21 29 15 71 -13 89 -24 15 -33 15 -152 -10 -70 -15 -130 -23
-133 -19 -4 5 -34 45 -68 89 -34 45 -68 89 -77 98 -24 24 -71 20 -89 -6z"/>
<path d="M885 1039 c-9 -41 -17 -83 -17 -94 -2 -19 108 -189 155 -242 24 -27
54 -29 85 -7 40 28 29 61 -83 235 -58 90 -109 167 -114 172 -5 5 -16 -22 -26
-64z"/>
<path d="M211 1031 c-19 -35 6 -50 94 -53 l80 -3 3 -116 3 -117 -26 -6 c-14
-4 -25 -11 -25 -16 0 -5 -13 -16 -30 -25 -16 -9 -30 -20 -30 -25 0 -6 56 -10
140 -10 138 0 164 7 119 30 -11 7 -29 20 -40 31 -10 10 -23 19 -29 19 -6 0
-10 47 -10 120 l0 119 86 3 c68 2 89 7 97 20 8 12 7 21 -2 32 -12 14 -43 16
-217 16 -188 0 -204 -1 -213 -19z"/>
<path d="M603 95 c0 -27 2 -38 4 -22 2 15 8 27 13 27 5 0 11 -12 13 -27 4 -26
4 -26 6 5 1 22 -4 32 -13 32 -8 0 -17 8 -19 18 -3 9 -5 -5 -4 -33z"/>
<path d="M1102 95 c0 -27 2 -43 5 -35 3 8 13 24 22 35 15 18 15 19 -1 7 -14
-12 -17 -10 -21 15 -2 16 -4 6 -5 -22z"/>
<path d="M720 120 c-4 -25 1 -54 10 -63 4 -5 5 3 3 17 -4 19 -1 26 10 26 9 0
17 -10 19 -22 2 -12 9 -23 16 -24 7 -1 8 0 2 3 -12 6 -13 40 -1 45 5 2 3 9 -5
16 -8 7 -14 8 -14 2 0 -14 -27 -13 -33 3 -4 8 -6 8 -7 -3z"/>
<path d="M949 118 c-2 -25 3 -53 11 -62 5 -5 6 1 3 14 -3 12 -1 25 4 29 7 4 6
11 -3 19 -11 10 -14 10 -15 0z"/>
<path d="M1485 120 c-3 -5 0 -7 8 -4 24 9 28 -12 7 -31 -27 -25 -25 -35 8 -34
21 0 23 2 9 7 -15 7 -16 10 -3 27 7 10 12 25 9 32 -6 15 -29 17 -38 3z"/>
<path d="M1545 120 c-3 -5 0 -7 8 -4 24 9 28 -12 7 -31 -27 -25 -25 -35 8 -34
21 0 23 2 9 7 -15 7 -16 10 -3 27 7 10 12 25 9 32 -6 15 -29 17 -38 3z"/>
<path d="M1612 105 c-22 -28 -23 -30 -5 -34 10 -2 21 -8 24 -13 10 -15 16 14
10 47 l-6 29 -23 -29z m14 -22 c-10 -10 -19 5 -10 18 6 11 8 11 12 0 2 -7 1
-15 -2 -18z"/>
<path d="M1665 120 c-4 -6 1 -7 11 -3 13 5 16 3 11 -10 -3 -9 -2 -19 4 -22 14
-9 -1 -27 -18 -21 -8 3 -11 1 -8 -4 10 -16 32 -12 40 8 6 16 7 16 16 0 22 -39
59 -4 44 42 -8 26 -29 25 -48 -2 l-16 -23 0 23 c-1 22 -25 31 -36 12z m90 -30
c0 -27 -20 -38 -28 -15 -8 20 3 47 17 42 6 -2 11 -14 11 -27z"/>
<path d="M1785 120 c-4 -6 1 -7 11 -3 13 5 16 3 11 -10 -3 -9 -2 -19 4 -22 14
-9 -1 -27 -18 -21 -8 3 -11 1 -8 -4 8 -14 32 -13 37 2 13 39 -18 88 -37 58z"/>
<path d="M1850 106 c-7 -14 -10 -32 -7 -40 8 -20 36 -21 43 -1 6 14 8 13 20
-2 10 -14 15 -16 25 -5 7 6 23 12 36 12 13 0 23 -6 23 -12 0 -10 2 -10 8 0 5
7 6 27 4 44 l-5 32 -22 -27 -23 -26 -6 25 c-8 29 -31 31 -46 4 -6 -11 -16 -17
-25 -13 -12 4 -13 9 -4 19 6 8 7 14 2 14 -5 0 -15 -11 -23 -24z m85 -16 c0
-27 -20 -38 -28 -15 -8 20 3 47 17 42 6 -2 11 -14 11 -27z m51 -7 c-10 -10
-19 5 -10 18 6 11 8 11 12 0 2 -7 1 -15 -2 -18z m-108 -5 c-6 -18 -28 -21 -28
-4 0 9 7 16 16 16 9 0 14 -5 12 -12z"/>
<path d="M2037 123 c22 -4 22 -6 8 -33 -22 -42 -17 -51 5 -10 25 46 25 50 -7
49 -24 -2 -25 -2 -6 -6z"/>
<path d="M550 93 c0 -10 4 -14 8 -8 4 6 11 13 16 18 5 4 2 7 -7 7 -10 0 -17
-8 -17 -17z"/>
<path d="M661 83 c-1 -27 3 -33 19 -33 16 0 20 6 19 33 -2 30 -2 30 -6 5 -6
-36 -20 -36 -26 0 -4 25 -4 25 -6 -5z"/>
<path d="M807 104 c-13 -13 -7 -24 14 -24 11 0 19 5 17 12 -5 14 -22 21 -31
12z"/>
<path d="M861 78 c2 -28 2 -29 6 -8 3 14 10 28 17 32 7 5 5 8 -6 8 -14 0 -18
-8 -17 -32z"/>
<path d="M900 93 c0 -10 4 -14 8 -8 4 6 11 13 16 18 5 4 2 7 -7 7 -10 0 -17
-8 -17 -17z"/>
<path d="M994 95 c-8 -21 2 -45 20 -45 7 0 16 7 20 15 8 21 -3 45 -20 45 -8 0
-17 -7 -20 -15z m31 -15 c0 -7 -6 -15 -12 -17 -8 -3 -13 4 -13 17 0 13 5 20
13 18 6 -3 12 -11 12 -18z"/>
<path d="M1054 95 c-8 -20 2 -45 18 -44 10 0 10 2 1 6 -7 2 -13 13 -13 23 0
10 6 21 13 23 9 4 9 6 -1 6 -7 1 -15 -6 -18 -14z"/>
<path d="M1194 95 c-8 -20 2 -45 18 -44 10 0 10 2 1 6 -7 2 -13 13 -13 23 0
10 6 21 13 23 9 4 9 6 -1 6 -7 1 -15 -6 -18 -14z"/>
<path d="M1245 100 c-3 -5 0 -7 8 -4 20 7 32 -15 18 -29 -9 -9 -14 -8 -22 3
-9 13 -10 13 -6 0 5 -21 33 -24 40 -5 13 32 -21 63 -38 35z"/>
<path d="M1301 77 c2 -31 2 -31 6 -4 2 15 8 27 13 27 5 0 11 -12 13 -27 l4
-28 2 28 c0 15 5 27 10 27 5 0 12 -12 14 -27 4 -27 4 -27 6 4 1 29 -1 31 -34
31 -33 0 -35 -2 -34 -31z"/>
<path d="M562 65 c-11 -12 -10 -15 3 -15 8 0 15 7 15 15 0 18 -2 18 -18 0z"/>
<path d="M912 65 c-11 -12 -10 -15 3 -15 8 0 15 7 15 15 0 18 -2 18 -18 0z"/>
<path d="M1120 71 c0 -5 5 -13 10 -16 6 -3 10 -2 10 4 0 5 -4 13 -10 16 -5 3
-10 2 -10 -4z"/>
<path d="M808 58 c5 -5 16 -8 23 -6 8 3 3 7 -10 11 -17 4 -21 3 -13 -5z"/>
</g>
</svg>
